<svg width="12" height="24" viewBox="0 0 12 24" fill="none" xmlns="http://www.w3.org/2000/svg">
<path d="M11.3306 21.5044L2.68501 12.72C2.49539 12.5284 2.38904 12.2696 2.38904 12C2.38904 11.7304 2.49539 11.4717 2.68501 11.28L11.3288 2.49565C11.5183 2.3028 11.6245 2.04322 11.6245 1.77284C11.6245 1.50245 11.5183 1.24288 11.3288 1.05002C11.2362 0.955059 11.1255 0.879585 11.0033 0.828054C10.8811 0.776522 10.7498 0.749973 10.6172 0.749973C10.4846 0.749973 10.3533 0.776522 10.2311 0.828054C10.1089 0.879585 9.99821 0.955059 9.90563 1.05002L1.26188 9.83252C0.693895 10.411 0.375671 11.1893 0.375671 12C0.375671 12.8107 0.693895 13.589 1.26188 14.1675L9.90563 22.95C9.99824 23.0453 10.109 23.121 10.2314 23.1727C10.3538 23.2244 10.4853 23.251 10.6181 23.251C10.751 23.251 10.8825 23.2244 11.0049 23.1727C11.1272 23.121 11.238 23.0453 11.3306 22.95C11.5201 22.7572 11.6263 22.4976 11.6263 22.2272C11.6263 21.9568 11.5201 21.6973 11.3306 21.5044Z" fill="black"/>
</svg>
