<svg width="31" height="29" viewBox="0 0 31 29" fill="none" xmlns="http://www.w3.org/2000/svg">
<path fill-rule="evenodd" clip-rule="evenodd" d="M12.0746 28.375H18.9257C23.7373 28.375 26.1438 28.375 27.872 27.2419C28.6177 26.7531 29.26 26.1224 29.7621 25.3857C30.9168 23.6899 30.9168 21.3265 30.9168 16.6028C30.9168 11.8776 30.9168 9.5158 29.7621 7.81997C29.26 7.08322 28.6178 6.45251 27.872 5.9638C26.762 5.23459 25.3715 4.97405 23.2424 4.88155C22.2265 4.88155 21.3523 4.12614 21.1535 3.14718C21.0015 2.4301 20.6066 1.78748 20.0355 1.32794C19.4644 0.868387 18.7522 0.620091 18.0192 0.625011H12.9811C11.4579 0.625011 10.146 1.68105 9.84687 3.14718C9.648 4.12614 8.77387 4.88155 7.75791 4.88155C5.63041 4.97405 4.23983 5.23614 3.12829 5.9638C2.38308 6.45261 1.74136 7.08332 1.23975 7.81997C0.0834961 9.5158 0.0834961 11.8776 0.0834961 16.6028C0.0834961 21.3265 0.0834962 23.6883 1.2382 25.3857C1.7377 26.1196 2.37904 26.7501 3.12829 27.2419C4.8565 28.375 7.26304 28.375 12.0746 28.375ZM15.5002 10.2959C11.9528 10.2959 9.07604 13.1187 9.07604 16.6013C9.07604 20.0855 11.9528 22.9098 15.5002 22.9098C19.0475 22.9098 21.9243 20.0855 21.9243 16.6028C21.9243 13.1187 19.0475 10.2959 15.5002 10.2959ZM15.5002 12.8181C13.3727 12.8181 11.646 14.5123 11.646 16.6028C11.646 18.6918 13.3727 20.3861 15.5002 20.3861C17.6277 20.3861 19.3543 18.6918 19.3543 16.6028C19.3543 14.5123 17.6277 12.8181 15.5002 12.8181ZM22.7799 11.557C22.7799 10.8601 23.355 10.2959 24.0657 10.2959H25.7769C26.4861 10.2959 27.0627 10.8601 27.0627 11.557C27.0594 11.8944 26.9223 12.2168 26.6815 12.4533C26.4407 12.6897 26.1159 12.8209 25.7785 12.8181H24.0657C23.8984 12.8197 23.7325 12.7884 23.5774 12.7259C23.4223 12.6634 23.281 12.5709 23.1616 12.4538C23.0422 12.3367 22.947 12.1972 22.8815 12.0434C22.8161 11.8895 22.7815 11.7242 22.7799 11.557Z" fill="white"/>
</svg>
