<svg width="27" height="27" viewBox="0 0 27 27" fill="none" xmlns="http://www.w3.org/2000/svg">
<path d="M9.28125 16.0498C9.4095 17.6597 10.6819 18.9135 12.9634 19.062V20.25H13.9759V19.0536C16.3384 18.8882 17.7188 17.6259 17.7188 15.7933C17.7188 14.1278 16.6624 13.2688 14.7741 12.8233L13.9759 12.6343V9.39938C14.9884 9.51413 15.633 10.0676 15.7882 10.8338H17.5635C17.4353 9.28294 16.1055 8.06963 13.9759 7.938V6.75H12.9634V7.96331C10.9468 8.16075 9.5715 9.37406 9.5715 11.0903C9.5715 12.609 10.5941 13.5743 12.2934 13.9708L12.9634 14.1362V17.5686C11.9256 17.4116 11.2387 16.8429 11.0835 16.0498H9.28125ZM12.9549 12.3947C11.9593 12.1635 11.4193 11.6927 11.4193 10.9839C11.4193 10.1908 12.0015 9.59681 12.9634 9.423V12.393L12.9549 12.3947ZM14.1227 14.4079C15.3326 14.688 15.8912 15.1419 15.8912 15.9435C15.8912 16.8581 15.1959 17.4859 13.9759 17.6006V14.3741L14.1227 14.4079Z" fill="#FF9900"/>
<path d="M13.5 25.3125C10.3671 25.3125 7.36257 24.068 5.1473 21.8527C2.93203 19.6374 1.6875 16.6329 1.6875 13.5C1.6875 10.3671 2.93203 7.36257 5.1473 5.1473C7.36257 2.93203 10.3671 1.6875 13.5 1.6875C16.6329 1.6875 19.6374 2.93203 21.8527 5.1473C24.068 7.36257 25.3125 10.3671 25.3125 13.5C25.3125 16.6329 24.068 19.6374 21.8527 21.8527C19.6374 24.068 16.6329 25.3125 13.5 25.3125ZM13.5 27C17.0804 27 20.5142 25.5777 23.0459 23.0459C25.5777 20.5142 27 17.0804 27 13.5C27 9.91958 25.5777 6.4858 23.0459 3.95406C20.5142 1.42232 17.0804 0 13.5 0C9.91958 0 6.4858 1.42232 3.95406 3.95406C1.42232 6.4858 0 9.91958 0 13.5C0 17.0804 1.42232 20.5142 3.95406 23.0459C6.4858 25.5777 9.91958 27 13.5 27Z" fill="#FF9900"/>
<path d="M13.5 22.7812C11.0385 22.7812 8.67774 21.8034 6.93717 20.0628C5.19659 18.3223 4.21875 15.9615 4.21875 13.5C4.21875 11.0385 5.19659 8.67774 6.93717 6.93717C8.67774 5.19659 11.0385 4.21875 13.5 4.21875C15.9615 4.21875 18.3223 5.19659 20.0628 6.93717C21.8034 8.67774 22.7812 11.0385 22.7812 13.5C22.7812 15.9615 21.8034 18.3223 20.0628 20.0628C18.3223 21.8034 15.9615 22.7812 13.5 22.7812ZM13.5 23.625C14.8296 23.625 16.1462 23.3631 17.3747 22.8543C18.6031 22.3455 19.7193 21.5996 20.6595 20.6595C21.5996 19.7193 22.3455 18.6031 22.8543 17.3747C23.3631 16.1462 23.625 14.8296 23.625 13.5C23.625 12.1704 23.3631 10.8538 22.8543 9.62533C22.3455 8.39691 21.5996 7.28074 20.6595 6.34054C19.7193 5.40035 18.6031 4.65455 17.3747 4.14572C16.1462 3.63689 14.8296 3.375 13.5 3.375C10.8147 3.375 8.23935 4.44174 6.34054 6.34054C4.44174 8.23935 3.375 10.8147 3.375 13.5C3.375 16.1853 4.44174 18.7606 6.34054 20.6595C8.23935 22.5583 10.8147 23.625 13.5 23.625Z" fill="#FF9900"/>
</svg>
