<svg width="27" height="31" viewBox="0 0 27 31" fill="none" xmlns="http://www.w3.org/2000/svg">
<path d="M25.8722 12.75C25.8557 9.75938 25.7238 8.13963 24.6664 7.08363C23.4591 5.875 21.5135 5.875 17.625 5.875H13.5C9.6115 5.875 7.66588 5.875 6.45863 7.08363C5.25 8.29088 5.25 10.2365 5.25 14.125V21C5.25 24.8885 5.25 26.8341 6.45863 28.0414C7.66588 29.25 9.6115 29.25 13.5 29.25H17.625C21.5135 29.25 23.4591 29.25 24.6664 28.0414C25.875 26.8341 25.875 24.8885 25.875 21V19.625" stroke="white" stroke-width="2" stroke-linecap="round"/>
<path d="M1.125 12.75V21C1.125 22.094 1.5596 23.1432 2.33318 23.9168C3.10677 24.6904 4.15598 25.125 5.25 25.125M21.75 5.875C21.75 4.78098 21.3154 3.73177 20.5418 2.95818C19.7682 2.1846 18.719 1.75 17.625 1.75H12.125C6.93988 1.75 4.34662 1.75 2.7365 3.3615C1.83725 4.25937 1.43988 5.4625 1.26525 7.25" stroke="white" stroke-width="2" stroke-linecap="round"/>
</svg>
