<svg width="36" height="36" viewBox="0 0 36 36" fill="none" xmlns="http://www.w3.org/2000/svg">
<path d="M27.4998 11.6667C27.4998 12.5065 27.1662 13.312 26.5723 13.9058C25.9785 14.4997 25.173 14.8333 24.3332 14.8333C23.4933 14.8333 22.6879 14.4997 22.094 13.9058C21.5001 13.312 21.1665 12.5065 21.1665 11.6667C21.1665 10.8268 21.5001 10.0214 22.094 9.4275C22.6879 8.83363 23.4933 8.5 24.3332 8.5C25.173 8.5 25.9785 8.83363 26.5723 9.4275C27.1662 10.0214 27.4998 10.8268 27.4998 11.6667Z" fill="white"/>
<path fill-rule="evenodd" clip-rule="evenodd" d="M17.9096 0.979187H18.0901C21.746 0.979187 24.6103 0.979187 26.8459 1.28002C29.1323 1.58719 30.9373 2.23002 32.3543 3.64552C33.7714 5.0626 34.4127 6.8676 34.7198 9.15552C35.0207 11.3896 35.0207 14.2539 35.0207 17.9098V18.0491C35.0207 21.0717 35.0207 23.5449 34.856 25.5589C34.6913 27.5855 34.3541 29.2749 33.5973 30.6809C33.2648 31.3 32.8531 31.8558 32.3543 32.3545C30.9373 33.7716 29.1323 34.4129 26.8443 34.72C24.6103 35.0209 21.746 35.0209 18.0901 35.0209H17.9096C14.2537 35.0209 11.3894 35.0209 9.15375 34.72C6.86742 34.4129 5.06242 33.77 3.64534 32.3545C2.38975 31.0989 1.74059 29.5362 1.397 27.595C1.05659 25.6903 0.994837 23.32 0.982171 20.3782C0.979004 19.6293 0.979004 18.8376 0.979004 18.0016V17.9098C0.979004 14.2539 0.979004 11.3896 1.27984 9.15394C1.587 6.8676 2.22984 5.0626 3.64534 3.64552C5.06242 2.22844 6.86742 1.58719 9.15534 1.28002C11.3894 0.979187 14.2537 0.979187 17.9096 0.979187ZM9.47042 3.63285C7.44692 3.90519 6.22617 4.42452 5.32525 5.32544C4.42275 6.22794 3.905 7.4471 3.63267 9.47219C3.35717 11.5305 3.354 14.2349 3.354 18V19.3364L4.93892 17.9494C5.63412 17.3408 6.53464 17.0192 7.45806 17.0498C8.38147 17.0804 9.25875 17.4608 9.91217 18.114L16.7047 24.9065C17.2318 25.4335 17.9279 25.7577 18.6705 25.822C19.413 25.8863 20.1545 25.6866 20.7643 25.258L21.2362 24.9255C22.116 24.3073 23.1796 24.0059 24.253 24.0706C25.3263 24.1353 26.346 24.5623 27.1452 25.2818L31.626 29.3145C32.0788 28.3677 32.3464 27.1232 32.4889 25.3673C32.6441 23.4594 32.6457 21.0812 32.6457 18C32.6457 14.2349 32.6425 11.5305 32.367 9.47219C32.0947 7.4471 31.5753 6.22635 30.6744 5.32385C29.7719 4.42294 28.5528 3.90519 26.5277 3.63285C24.4693 3.35735 21.765 3.35419 17.9998 3.35419C14.2347 3.35419 11.5288 3.35735 9.47042 3.63285Z" fill="white"/>
</svg>
