<svg width="38" height="38" viewBox="0 0 38 38" fill="none" xmlns="http://www.w3.org/2000/svg">
<path d="M35.8572 18.2118C34.283 11.095 31.9139 7.29645 28.3997 6.25887C27.661 6.04219 26.8947 5.93393 26.1249 5.9375C25.1073 5.9375 24.2212 6.18539 23.2838 6.44813C22.1542 6.76504 20.8709 7.125 18.9999 7.125C17.1288 7.125 15.8448 6.76578 14.713 6.44887C13.7749 6.18539 12.8895 5.9375 11.8749 5.9375C11.0788 5.93474 10.2863 6.04265 9.51993 6.25813C6.02422 7.29125 3.65665 11.0883 2.05946 18.2073C0.342036 25.8682 1.18739 30.705 4.43001 31.8272C4.87449 31.9839 5.34216 32.0647 5.81344 32.0662C8.03481 32.0662 9.81606 30.2159 11.0332 28.7011C12.4085 26.9867 14.0183 26.1168 18.9999 26.1168C23.4493 26.1168 25.2907 26.7202 26.8812 28.7011C27.8809 29.9465 28.8257 30.8179 29.7683 31.3663C31.0218 32.0952 32.2747 32.257 33.4911 31.8391C35.4074 31.1852 36.5059 29.4567 36.7567 26.7002C36.9475 24.5864 36.6536 21.8099 35.8572 18.2118ZM15.4374 17.8125H13.0624V20.1875C13.0624 20.5024 12.9373 20.8045 12.7146 21.0272C12.4919 21.2499 12.1898 21.375 11.8749 21.375C11.5599 21.375 11.2579 21.2499 11.0352 21.0272C10.8125 20.8045 10.6874 20.5024 10.6874 20.1875V17.8125H8.31239C7.99744 17.8125 7.6954 17.6874 7.4727 17.4647C7.25 17.242 7.12489 16.9399 7.12489 16.625C7.12489 16.3101 7.25 16.008 7.4727 15.7853C7.6954 15.5626 7.99744 15.4375 8.31239 15.4375H10.6874V13.0625C10.6874 12.7476 10.8125 12.4455 11.0352 12.2228C11.2579 12.0001 11.5599 11.875 11.8749 11.875C12.1898 11.875 12.4919 12.0001 12.7146 12.2228C12.9373 12.4455 13.0624 12.7476 13.0624 13.0625V15.4375H15.4374C15.7523 15.4375 16.0544 15.5626 16.2771 15.7853C16.4998 16.008 16.6249 16.3101 16.6249 16.625C16.6249 16.9399 16.4998 17.242 16.2771 17.4647C16.0544 17.6874 15.7523 17.8125 15.4374 17.8125ZM21.6718 18.1094C21.3782 18.1094 21.0912 18.0223 20.8471 17.8592C20.603 17.6961 20.4127 17.4643 20.3004 17.193C20.188 16.9218 20.1586 16.6234 20.2159 16.3354C20.2732 16.0475 20.4146 15.783 20.6222 15.5754C20.8297 15.3678 21.0942 15.2264 21.3822 15.1691C21.6701 15.1119 21.9686 15.1413 22.2398 15.2536C22.511 15.366 22.7429 15.5562 22.906 15.8003C23.0691 16.0444 23.1561 16.3314 23.1561 16.625C23.1561 17.0187 22.9998 17.3962 22.7214 17.6746C22.443 17.953 22.0654 18.1094 21.6718 18.1094ZM24.9374 21.375C24.6437 21.375 24.3565 21.2878 24.1123 21.1246C23.8681 20.9613 23.6779 20.7293 23.5657 20.4578C23.4534 20.1864 23.4242 19.8877 23.4818 19.5997C23.5394 19.3116 23.6811 19.0471 23.8891 18.8397C24.0971 18.6323 24.3619 18.4912 24.6501 18.4343C24.9383 18.3775 25.2368 18.4074 25.508 18.5203C25.7792 18.6332 26.0107 18.8241 26.1734 19.0687C26.3361 19.3132 26.4225 19.6006 26.4218 19.8943C26.4208 20.2874 26.264 20.664 25.9857 20.9416C25.7074 21.2191 25.3304 21.375 24.9374 21.375ZM24.9374 14.8438C24.6438 14.8438 24.3568 14.7567 24.1127 14.5936C23.8686 14.4305 23.6784 14.1987 23.566 13.9274C23.4537 13.6562 23.4243 13.3577 23.4815 13.0698C23.5388 12.7818 23.6802 12.5174 23.8878 12.3098C24.0954 12.1022 24.3599 11.9608 24.6478 11.9035C24.9357 11.8462 25.2342 11.8756 25.5054 11.988C25.7767 12.1003 26.0085 12.2906 26.1716 12.5347C26.3347 12.7788 26.4218 13.0658 26.4218 13.3594C26.4218 13.7531 26.2654 14.1306 25.987 14.409C25.7086 14.6874 25.3311 14.8438 24.9374 14.8438ZM28.203 18.1094C27.9094 18.1094 27.6224 18.0223 27.3783 17.8592C27.1342 17.6961 26.944 17.4643 26.8316 17.193C26.7193 16.9218 26.6899 16.6234 26.7472 16.3354C26.8044 16.0475 26.9458 15.783 27.1534 15.5754C27.361 15.3678 27.6255 15.2264 27.9134 15.1691C28.2014 15.1119 28.4998 15.1413 28.7711 15.2536C29.0423 15.366 29.2741 15.5562 29.4372 15.8003C29.6003 16.0444 29.6874 16.3314 29.6874 16.625C29.6874 17.0187 29.531 17.3962 29.2526 17.6746C28.9743 17.953 28.5967 18.1094 28.203 18.1094Z" fill="white"/>
</svg>
