<svg width="38" height="38" viewBox="0 0 38 38" fill="none" xmlns="http://www.w3.org/2000/svg">
<path d="M19.0018 3.16667C10.2539 3.16667 3.16846 10.2521 3.16846 19C3.16655 22.3237 4.21124 25.5635 6.15433 28.26C8.09741 30.9565 10.8402 32.9728 13.9937 34.0227C14.7854 34.1604 15.083 33.6854 15.083 33.269C15.083 32.8937 15.0625 31.6477 15.0625 30.3208C11.0851 31.0539 10.056 29.3518 9.73929 28.4604C9.56038 28.0044 8.78929 26.6 8.11638 26.2232C7.56221 25.9271 6.77054 25.194 8.09579 25.175C9.34346 25.1544 10.2333 26.3229 10.531 26.7979C11.956 29.1919 14.2312 28.519 15.1416 28.1042C15.281 27.075 15.6958 26.3831 16.1518 25.9872C12.6289 25.5914 8.94763 24.225 8.94763 18.1688C8.94763 16.4461 9.56038 15.0227 10.5705 13.9143C10.4122 13.5185 9.85804 11.8956 10.7289 9.7185C10.7289 9.7185 12.0541 9.30208 15.083 11.3398C16.372 10.9826 17.7038 10.8031 19.0414 10.8062C20.3872 10.8062 21.733 10.9836 22.9997 11.3398C26.0286 9.2815 27.3539 9.7185 27.3539 9.7185C28.2247 11.8956 27.6705 13.5185 27.5122 13.9143C28.5208 15.0227 29.1351 16.4271 29.1351 18.1688C29.1351 24.2456 25.4349 25.5914 21.912 25.9872C22.4851 26.4813 22.9807 27.4313 22.9807 28.9164C22.9807 31.0333 22.9601 32.7354 22.9601 33.2706C22.9601 33.6854 23.2578 34.1794 24.0495 34.0211C27.1921 32.9597 29.9229 30.9395 31.8574 28.245C33.7919 25.5504 34.8328 22.3171 34.8335 19C34.8335 10.2521 27.7481 3.16667 19.0002 3.16667" fill="white"/>
</svg>
