<svg width="31" height="31" viewBox="0 0 31 31" fill="none" xmlns="http://www.w3.org/2000/svg">
<mask id="mask0_45_606" style="mask-type:luminance" maskUnits="userSpaceOnUse" x="0" y="0" width="31" height="31">
<path d="M30.8129 0H0V31H30.8129V0Z" fill="white"/>
</mask>
<g mask="url(#mask0_45_606)">
<path d="M30.8128 15.8559C30.8128 14.8023 30.7261 13.743 30.5412 12.7064H15.7153V18.6752H24.2054C23.8531 20.6002 22.7212 22.3032 21.0635 23.3852V27.258H26.1288C29.1032 24.5584 30.8128 20.5717 30.8128 15.8559Z" fill="#4285F4"/>
<path d="M15.7155 31C19.9548 31 23.5299 29.6274 26.1346 27.258L21.0694 23.3852C19.6602 24.3307 17.8409 24.8661 15.7212 24.8661C11.6206 24.8661 8.14365 22.1379 6.89612 18.4702H1.66919V22.4625C4.33753 27.6968 9.77237 31 15.7155 31Z" fill="#34A853"/>
<path d="M6.89025 18.4701C6.23183 16.5451 6.23183 14.4606 6.89025 12.5356V8.54308H1.66911C-0.560276 12.9228 -0.560276 18.0829 1.66911 22.4625L6.89025 18.4701Z" fill="#FBBC04"/>
<path d="M15.7155 6.13392C17.9564 6.09976 20.1223 6.93127 21.7452 8.45765L26.2328 4.03232C23.3913 1.40106 19.6198 -0.0455637 15.7155 -7.05011e-07C9.77236 -7.05011e-07 4.33753 3.30333 1.66919 8.54307L6.89034 12.5355C8.13209 8.86201 11.6148 6.13392 15.7155 6.13392Z" fill="#EA4335"/>
</g>
</svg>
