<svg width="39" height="25" viewBox="0 0 39 25" fill="none" xmlns="http://www.w3.org/2000/svg">
<path d="M26.3335 10.7917C29.1693 10.7917 31.4414 8.50252 31.4414 5.66669C31.4414 2.83085 29.1693 0.541687 26.3335 0.541687C23.4977 0.541687 21.2085 2.83085 21.2085 5.66669C21.2085 8.50252 23.4977 10.7917 26.3335 10.7917ZM12.6668 10.7917C15.5027 10.7917 17.7747 8.50252 17.7747 5.66669C17.7747 2.83085 15.5027 0.541687 12.6668 0.541687C9.831 0.541687 7.54183 2.83085 7.54183 5.66669C7.54183 8.50252 9.831 10.7917 12.6668 10.7917ZM12.6668 14.2084C8.68641 14.2084 0.708496 16.2071 0.708496 20.1875V22.75C0.708496 23.6896 1.47725 24.4584 2.41683 24.4584H22.9168C23.8564 24.4584 24.6252 23.6896 24.6252 22.75V20.1875C24.6252 16.2071 16.6472 14.2084 12.6668 14.2084ZM26.3335 14.2084C25.8381 14.2084 25.2743 14.2425 24.6764 14.2938C24.7106 14.3109 24.7277 14.345 24.7447 14.3621C26.6922 15.78 28.0418 17.6763 28.0418 20.1875V22.75C28.0418 23.3479 27.9222 23.9288 27.7343 24.4584H36.5835C37.5231 24.4584 38.2918 23.6896 38.2918 22.75V20.1875C38.2918 16.2071 30.3139 14.2084 26.3335 14.2084Z" fill="white"/>
</svg>
