<svg width="38" height="38" viewBox="0 0 38 38" fill="none" xmlns="http://www.w3.org/2000/svg">
<path d="M17.4165 26.9167H20.5832V17.4167H17.4165V26.9167ZM18.9998 14.25C19.4484 14.25 19.8248 14.098 20.1288 13.794C20.4328 13.49 20.5842 13.1142 20.5832 12.6667C20.5832 12.2181 20.4312 11.8423 20.1272 11.5393C19.8232 11.2364 19.4474 11.0844 18.9998 11.0833C18.5512 11.0833 18.1754 11.2353 17.8725 11.5393C17.5696 11.8433 17.4176 12.2191 17.4165 12.6667C17.4165 13.1153 17.5685 13.4916 17.8725 13.7956C18.1765 14.0996 18.5523 14.2511 18.9998 14.25ZM18.9998 34.8333C16.8096 34.8333 14.7512 34.4174 12.8248 33.5857C10.8984 32.7539 9.22275 31.626 7.79775 30.2021C6.37275 28.7771 5.24489 27.1014 4.41417 25.175C3.58345 23.2486 3.16756 21.1903 3.1665 19C3.1665 16.8097 3.58239 14.7514 4.41417 12.825C5.24595 10.8986 6.37381 9.22292 7.79775 7.79792C9.22275 6.37292 10.8984 5.24506 12.8248 4.41433C14.7512 3.58361 16.8096 3.16772 18.9998 3.16667C21.1901 3.16667 23.2484 3.58256 25.1748 4.41433C27.1012 5.24611 28.7769 6.37397 30.2019 7.79792C31.6269 9.22292 32.7553 10.8986 33.5871 12.825C34.4189 14.7514 34.8342 16.8097 34.8332 19C34.8332 21.1903 34.4173 23.2486 33.5855 25.175C32.7537 27.1014 31.6259 28.7771 30.2019 30.2021C28.7769 31.6271 27.1012 32.7555 25.1748 33.5872C23.2484 34.419 21.1901 34.8344 18.9998 34.8333Z" fill="white"/>
</svg>
