<svg width="34" height="34" viewBox="0 0 34 34" fill="none" xmlns="http://www.w3.org/2000/svg">
<path d="M27.0158 17.0142C27.2002 17.0402 27.3777 17.1024 27.5381 17.1971C27.6985 17.2919 27.8386 17.4173 27.9505 17.5663C28.0623 17.7152 28.1437 17.8848 28.1899 18.0652C28.2362 18.2457 28.2464 18.4334 28.22 18.6178C27.8649 21.0744 26.7136 23.3465 24.9427 25.0857C23.1718 26.8248 20.8792 27.9349 18.4166 28.2455V29.75C18.4166 30.1257 18.2674 30.4861 18.0017 30.7517C17.736 31.0174 17.3757 31.1667 17 31.1667C16.6242 31.1667 16.2639 31.0174 15.9982 30.7517C15.7326 30.4861 15.5833 30.1257 15.5833 29.75V28.2455C13.1211 27.9344 10.8289 26.8241 9.05837 25.085C7.28782 23.346 6.13663 21.0741 5.78139 18.6178C5.72804 18.2459 5.82463 17.8679 6.04992 17.5672C6.27522 17.2664 6.61076 17.0675 6.98272 17.0142C7.35469 16.9608 7.73261 17.0574 8.03336 17.2827C8.33411 17.508 8.53304 17.8435 8.58639 18.2155C8.87938 20.2379 9.89106 22.0871 11.4362 23.4245C12.9813 24.7619 14.9564 25.498 17 25.498C19.0435 25.498 21.0187 24.7619 22.5638 23.4245C24.1089 22.0871 25.1206 20.2379 25.4136 18.2155C25.4399 18.0313 25.5024 17.8541 25.5973 17.6941C25.6921 17.534 25.8176 17.3942 25.9665 17.2826C26.1155 17.1711 26.2849 17.09 26.4652 17.0439C26.6455 16.9978 26.8316 16.9877 27.0158 17.0142ZM17 2.83333C18.8786 2.83333 20.6803 3.57961 22.0086 4.90799C23.337 6.23638 24.0833 8.03805 24.0833 9.91667V17C24.0833 18.8786 23.337 20.6803 22.0086 22.0087C20.6803 23.3371 18.8786 24.0833 17 24.0833C15.1214 24.0833 13.3197 23.3371 11.9913 22.0087C10.6629 20.6803 9.91664 18.8786 9.91664 17V9.91667C9.91664 8.03805 10.6629 6.23638 11.9913 4.90799C13.3197 3.57961 15.1214 2.83333 17 2.83333Z" fill="#FF1010"/>
</svg>
