<svg width="50" height="50" viewBox="0 0 50 50" fill="none" xmlns="http://www.w3.org/2000/svg">
<path d="M25 7.1256C20.264 7.1256 15.722 9.00243 12.3731 12.3432C9.02423 15.684 7.14286 20.215 7.14286 24.9396C7.14286 29.6642 9.02423 34.1952 12.3731 37.536C15.722 40.8768 20.264 42.7536 25 42.7536C29.736 42.7536 34.278 40.8768 37.6269 37.536C40.9758 34.1952 42.8571 29.6642 42.8571 24.9396C42.8571 20.215 40.9758 15.684 37.6269 12.3432C34.278 9.00243 29.736 7.1256 25 7.1256ZM50 24.9396C50 31.554 47.3661 37.8975 42.6777 42.5746C37.9893 47.2517 31.6304 49.8792 25 49.8792C18.3696 49.8792 12.0107 47.2517 7.32233 42.5746C2.63392 37.8975 0 31.554 0 24.9396C0 18.3252 2.63392 11.9817 7.32233 7.30464C12.0107 2.62756 18.3696 0 25 0C31.6304 0 37.9893 2.62756 42.6777 7.30464C47.3661 11.9817 50 18.3252 50 24.9396Z" fill="white"/>
</svg>
