<svg width="26" height="26" viewBox="0 0 26 26" fill="none" xmlns="http://www.w3.org/2000/svg">
<path d="M0.399902 4.00002C0.399902 3.04525 0.779187 2.12957 1.45432 1.45444C2.12945 0.779309 3.04512 0.400024 3.9999 0.400024H5.7999V6.70002C5.7999 7.41611 6.08437 8.10287 6.59071 8.60921C7.09706 9.11556 7.78382 9.40002 8.4999 9.40002H15.6999C16.416 9.40002 17.1027 9.11556 17.6091 8.60921C18.1154 8.10287 18.3999 7.41611 18.3999 6.70002V0.400024H19.0821C20.0368 0.400228 20.9523 0.779647 21.6273 1.45482L24.5451 4.37262C25.2203 5.0476 25.5997 5.96312 25.5999 6.91782V22C25.5999 22.9548 25.2206 23.8705 24.5455 24.5456C23.8704 25.2207 22.9547 25.6 21.9999 25.6V15.7C21.9999 14.9839 21.7154 14.2972 21.2091 13.7908C20.7027 13.2845 20.016 13 19.2999 13H6.6999C5.98382 13 5.29706 13.2845 4.79071 13.7908C4.28437 14.2972 3.9999 14.9839 3.9999 15.7V25.6C3.04512 25.6 2.12945 25.2207 1.45432 24.5456C0.779187 23.8705 0.399902 22.9548 0.399902 22V4.00002ZM16.5999 0.400024H7.5999V6.70002C7.5999 6.93872 7.69472 7.16764 7.86351 7.33642C8.03229 7.5052 8.26121 7.60002 8.4999 7.60002H15.6999C15.9386 7.60002 16.1675 7.5052 16.3363 7.33642C16.5051 7.16764 16.5999 6.93872 16.5999 6.70002V0.400024ZM20.1999 15.7V25.6H5.7999V15.7C5.7999 15.4613 5.89472 15.2324 6.06351 15.0636C6.23229 14.8948 6.46121 14.8 6.6999 14.8H19.2999C19.5386 14.8 19.7675 14.8948 19.9363 15.0636C20.1051 15.2324 20.1999 15.4613 20.1999 15.7Z" fill="white"/>
</svg>
