<svg width="30" height="30" viewBox="0 0 30 30" fill="none" xmlns="http://www.w3.org/2000/svg">
<path d="M25.0159 4.98418C22.6914 2.64455 19.6235 1.18923 16.3411 0.869104C13.0587 0.548978 9.76737 1.38411 7.03468 3.23053C4.30198 5.07695 2.29911 7.81894 1.37138 10.9838C0.443643 14.1486 0.649177 17.538 1.95255 20.5675C2.08839 20.8491 2.13296 21.1661 2.08005 21.4742L0.833379 27.4667C0.785348 27.6964 0.795156 27.9345 0.861921 28.1595C0.928686 28.3846 1.05032 28.5895 1.21588 28.7558C1.3516 28.8906 1.5132 28.9964 1.69094 29.0671C1.86867 29.1377 2.05886 29.1715 2.25005 29.1667H2.53338L8.59671 27.9483C8.90488 27.9113 9.21738 27.9552 9.50338 28.0758C12.5329 29.3792 15.9223 29.5847 19.0871 28.657C22.252 27.7293 24.9939 25.7264 26.8404 22.9937C28.6868 20.261 29.5219 16.9697 29.2018 13.6873C28.8817 10.4049 27.4263 7.33696 25.0867 5.01251L25.0159 4.98418ZM9.33338 16.4167C9.05319 16.4167 8.77929 16.3336 8.54632 16.1779C8.31335 16.0223 8.13177 15.801 8.02455 15.5421C7.91733 15.2833 7.88927 14.9984 7.94393 14.7236C7.9986 14.4488 8.13352 14.1964 8.33164 13.9983C8.52977 13.8002 8.78219 13.6652 9.057 13.6106C9.33181 13.5559 9.61665 13.584 9.87551 13.6912C10.1344 13.7984 10.3556 13.98 10.5113 14.213C10.667 14.4459 10.75 14.7198 10.75 15C10.75 15.3757 10.6008 15.7361 10.3351 16.0017C10.0694 16.2674 9.7091 16.4167 9.33338 16.4167ZM15 16.4167C14.7199 16.4167 14.446 16.3336 14.213 16.1779C13.98 16.0223 13.7984 15.801 13.6912 15.5421C13.584 15.2833 13.5559 14.9984 13.6106 14.7236C13.6653 14.4488 13.8002 14.1964 13.9983 13.9983C14.1964 13.8002 14.4489 13.6652 14.7237 13.6106C14.9985 13.5559 15.2833 13.584 15.5422 13.6912C15.801 13.7984 16.0223 13.98 16.178 14.213C16.3336 14.4459 16.4167 14.7198 16.4167 15C16.4167 15.3757 16.2675 15.7361 16.0018 16.0017C15.7361 16.2674 15.3758 16.4167 15 16.4167ZM20.6667 16.4167C20.3865 16.4167 20.1126 16.3336 19.8797 16.1779C19.6467 16.0223 19.4651 15.801 19.3579 15.5421C19.2507 15.2833 19.2226 14.9984 19.2773 14.7236C19.3319 14.4488 19.4669 14.1964 19.665 13.9983C19.8631 13.8002 20.1155 13.6652 20.3903 13.6106C20.6651 13.5559 20.95 13.584 21.2088 13.6912C21.4677 13.7984 21.689 13.98 21.8446 14.213C22.0003 14.4459 22.0834 14.7198 22.0834 15C22.0834 15.3757 21.9341 15.7361 21.6684 16.0017C21.4028 16.2674 21.0424 16.4167 20.6667 16.4167Z" fill="#FF0037"/>
</svg>
