<svg width="20" height="20" viewBox="0 0 20 20" fill="none" xmlns="http://www.w3.org/2000/svg">
<path d="M18.092 12.326L18.285 10.432C18.388 9.421 18.455 8.754 18.402 8.333H18.422C19.293 8.333 20 7.587 20 6.667C20 5.747 19.293 5 18.421 5C17.549 5 16.842 5.746 16.842 6.667C16.842 7.083 16.987 7.464 17.226 7.756C16.883 7.979 16.434 8.451 15.758 9.161C15.238 9.708 14.978 9.981 14.688 10.024C14.5269 10.0473 14.3625 10.0229 14.215 9.954C13.947 9.83 13.768 9.492 13.411 8.815L11.527 5.25C11.307 4.833 11.122 4.484 10.955 4.203C11.638 3.835 12.105 3.086 12.105 2.223C12.105 0.994 11.163 0 10 0C8.837 0 7.895 0.995 7.895 2.222C7.895 3.086 8.362 3.835 9.045 4.202C8.878 4.484 8.694 4.833 8.473 5.25L6.59 8.816C6.232 9.492 6.053 9.83 5.785 9.955C5.63753 10.0239 5.47312 10.0483 5.312 10.025C5.022 9.982 4.762 9.708 4.242 9.161C3.566 8.451 3.117 7.979 2.774 7.756C3.014 7.464 3.158 7.083 3.158 6.666C3.158 5.747 2.45 5 1.578 5C0.708 5 0 5.746 0 6.667C0 7.587 0.707 8.333 1.579 8.333H1.598C1.544 8.753 1.612 9.421 1.715 10.432L1.908 12.326C2.015 13.377 2.104 14.377 2.214 15.278H17.786C17.896 14.378 17.985 13.377 18.092 12.326ZM8.855 20H11.145C14.13 20 15.623 20 16.619 19.06C17.053 18.648 17.329 17.908 17.527 16.944H2.473C2.671 17.908 2.946 18.648 3.381 19.059C4.377 20 5.87 20 8.855 20Z" fill="#FF9900"/>
</svg>
