<svg width="48" height="48" viewBox="0 0 48 48" fill="none" xmlns="http://www.w3.org/2000/svg">
<path d="M37.9329 1.73535L24.0005 15.6683C19.3566 11.026 14.7112 6.37916 10.0665 1.73535C4.69343 -3.63759 -3.63518 4.69384 1.73338 10.0683C6.37879 14.7091 11.0257 19.3566 15.6659 24.0004C11.0236 28.6464 6.37941 33.2904 1.73338 37.9326C-3.63518 43.304 4.69418 51.6332 10.0665 46.2655C14.7104 41.6202 19.3558 36.9742 23.9997 32.3319L37.9322 46.2655C43.3053 51.637 51.6361 43.3048 46.2653 37.9326C41.6199 33.2873 36.976 28.6435 32.3291 23.9989C36.9752 19.3536 41.6192 14.7083 46.2653 10.0638C51.6369 4.69384 43.306 -3.63759 37.9322 1.73835" fill="white"/>
</svg>
