<svg width="38" height="38" viewBox="0 0 38 38" fill="none" xmlns="http://www.w3.org/2000/svg">
<g clip-path="url(#clip0_47_693)">
<path fill-rule="evenodd" clip-rule="evenodd" d="M18.9998 6.33333C20.3536 6.33333 21.7422 6.36817 23.088 6.42517L24.6777 6.50117L26.1993 6.59142L27.6243 6.688L28.9258 6.78933C30.3382 6.89744 31.6672 7.50017 32.6791 8.49148C33.691 9.48279 34.3208 10.7992 34.4579 12.2091L34.5213 12.882L34.64 14.3228C34.7508 15.8159 34.8332 17.4436 34.8332 19C34.8332 20.5564 34.7508 22.1841 34.64 23.6772L34.5213 25.118C34.5007 25.3492 34.4801 25.5724 34.4579 25.7909C34.3208 27.2011 33.6907 28.5177 32.6785 29.509C31.6663 30.5003 30.3369 31.1029 28.9242 31.2107L27.6258 31.3104L26.2008 31.4086L24.6777 31.4988L23.088 31.5748C21.7261 31.634 20.3631 31.6646 18.9998 31.6667C17.6366 31.6646 16.2736 31.634 14.9117 31.5748L13.322 31.4988L11.8004 31.4086L10.3754 31.3104L9.07392 31.2107C7.66151 31.1026 6.33246 30.4998 5.32059 29.5085C4.30871 28.5172 3.67883 27.2008 3.54175 25.7909L3.47842 25.118L3.35967 23.6772C3.23861 22.121 3.17417 20.5609 3.1665 19C3.1665 17.4436 3.24884 15.8159 3.35967 14.3228L3.47842 12.882C3.499 12.6508 3.51959 12.4276 3.54175 12.2091C3.67878 10.7994 4.30843 9.48324 5.31998 8.49196C6.33153 7.50068 7.66021 6.8978 9.07234 6.78933L10.3723 6.688L11.7973 6.59142L13.3204 6.50117L14.9101 6.42517C16.2725 6.366 17.6361 6.33538 18.9998 6.33333ZM15.8332 15.1604V22.8396C15.8332 23.5711 16.6248 24.0271 17.2582 23.6629L23.9082 19.8233C24.0529 19.74 24.1731 19.6201 24.2566 19.4755C24.3402 19.331 24.3842 19.167 24.3842 19C24.3842 18.833 24.3402 18.669 24.2566 18.5245C24.1731 18.3799 24.0529 18.26 23.9082 18.1767L17.2582 14.3387C17.1137 14.2553 16.9498 14.2114 16.783 14.2114C16.6162 14.2114 16.4523 14.2554 16.3079 14.3388C16.1635 14.4223 16.0436 14.5423 15.9602 14.6868C15.8769 14.8313 15.8331 14.9952 15.8332 15.162V15.1604Z" fill="white"/>
</g>
<defs>
<clipPath id="clip0_47_693">
<rect width="38" height="38" fill="white"/>
</clipPath>
</defs>
</svg>
